<?xml version="1.0" encoding="UTF-8" standalone="no"?>
<!-- Created with Inkscape (http://www.inkscape.org/) -->

<svg
   width="800mm"
   height="600mm"
   viewBox="0 0 800 600"
   version="1.1"
   id="svg5"
   xml:space="preserve"
   inkscape:version="1.2.1 (9c6d41e410, 2022-07-14)"
   sodipodi:docname="example.svg"
   xmlns:inkscape="http://www.inkscape.org/namespaces/inkscape"
   xmlns:sodipodi="http://sodipodi.sourceforge.net/DTD/sodipodi-0.dtd"
   xmlns="http://www.w3.org/2000/svg"
   xmlns:svg="http://www.w3.org/2000/svg"><sodipodi:namedview
     id="namedview7"
     pagecolor="#ffffff"
     bordercolor="#cccccc"
     borderopacity="1"
     inkscape:showpageshadow="0"
     inkscape:pageopacity="1"
     inkscape:pagecheckerboard="0"
     inkscape:deskcolor="#d1d1d1"
     inkscape:document-units="mm"
     showgrid="false"
     inkscape:zoom="0.29085396"
     inkscape:cx="1174.1288"
     inkscape:cy="1096.7704"
     inkscape:window-width="1902"
     inkscape:window-height="1012"
     inkscape:window-x="0"
     inkscape:window-y="0"
     inkscape:window-maximized="1"
     inkscape:current-layer="layer1" /><defs
     id="defs2"><rect
       x="2387.3113"
       y="486.09621"
       width="485.25929"
       height="96.182469"
       id="rect1315" /></defs><g
     inkscape:label="Layer 1"
     inkscape:groupmode="layer"
     id="layer1"><rect
       style="fill:#42a5f5;stroke-width:1.02034"
       id="rect263"
       width="800"
       height="26.027405"
       x="0"
       y="573.9726"
       ry="4.9643336e-07" /><text
       xml:space="preserve"
       style="font-size:20.5005px;line-height:0.8;font-family:'RobotoMono Nerd Font Mono';-inkscape-font-specification:'RobotoMono Nerd Font Mono';letter-spacing:0px;word-spacing:0px;fill:#7c4dff;stroke-width:0.28473"
       x="7.9678931"
       y="553.38141"
       id="text425"
       transform="scale(0.92924258,1.0761453)"><tspan
         sodipodi:role="line"
         id="tspan423"
         style="font-size:20.5005px;fill:#7c4dff;stroke-width:0.28473"
         x="7.9678931"
         y="553.38141">panel</tspan></text><path
       id="rect637"
       style="fill:#c5cae9;stroke:#e3f2fd;stroke-width:9.89639"
       d="M 4.9481961,4.9175006 H 400.05181 c 0,0 0,2e-7 0,5e-7 V 574.0244 c 0,0 0,10e-6 0,10e-6 H 4.9481961 c -3e-7,0 -5e-7,-10e-6 -5e-7,-10e-6 V 4.9175011 c 0,-3e-7 2e-7,-5e-7 5e-7,-5e-7 z" /><path
       id="rect637-3"
       style="fill:#c5cae9;stroke:#e3f2fd;stroke-width:9.89342"
       d="m 400.16763,4.9467123 h 394.88566 c 0,0 0,2e-7 0,5e-7 V 574.02588 c 0,0 0,10e-6 0,10e-6 H 400.16763 c 0,0 0,-10e-6 0,-10e-6 V 4.9467128 c 0,-3e-7 0,-5e-7 0,-5e-7 z" /><rect
       style="fill:#42a5f5;stroke-width:0.693722"
       id="rect263-6"
       width="384.99997"
       height="25"
       x="10.000015"
       y="10.704238"
       ry="4.7683716e-07" /><rect
       style="fill:#42a5f5;stroke-width:0.693522"
       id="rect263-6-3"
       width="384.77908"
       height="25"
       x="405"
       y="10.704238"
       ry="4.7683716e-07" /><text
       xml:space="preserve"
       style="font-size:19.5815px;line-height:0.8;font-family:'RobotoMono Nerd Font Mono';-inkscape-font-specification:'RobotoMono Nerd Font Mono';letter-spacing:0px;word-spacing:0px;fill:#7c4dff;stroke-width:0.271966"
       x="154.27731"
       y="30.321556"
       id="text425-7"
       transform="scale(0.97285453,1.0279029)"><tspan
         sodipodi:role="line"
         id="tspan423-5"
         style="font-size:19.5815px;fill:#7c4dff;stroke-width:0.271966"
         x="154.27731"
         y="30.321556">window a</tspan></text><text
       xml:space="preserve"
       style="font-size:19.5815px;line-height:0.8;font-family:'RobotoMono Nerd Font Mono';-inkscape-font-specification:'RobotoMono Nerd Font Mono';letter-spacing:0px;word-spacing:0px;fill:#7c4dff;stroke-width:0.271966"
       x="560.12329"
       y="30.321556"
       id="text425-7-5"
       transform="scale(0.97285453,1.0279029)"><tspan
         sodipodi:role="line"
         id="tspan423-5-6"
         style="font-size:19.5815px;fill:#7c4dff;stroke-width:0.271966"
         x="560.12329"
         y="30.321556">window b</tspan></text><text
       xml:space="preserve"
       transform="scale(0.26458333)"
       id="text1313"
       style="font-family:'RobotoMono Nerd Font Mono';font-size:24px;line-height:0.8;letter-spacing:0px;word-spacing:0px;-inkscape-font-specification:'RobotoMono Nerd Font Mono';white-space:pre;shape-inside:url(#rect1315)" /><text
       xml:space="preserve"
       style="font-size:21.16666667px;line-height:0.8;font-family:'RobotoMono Nerd Font Mono';-inkscape-font-specification:'RobotoMono Nerd Font Mono';letter-spacing:0px;word-spacing:0px;stroke-width:0.264583"
       x="613.80585"
       y="105.53104"
       id="text1375"><tspan
         sodipodi:role="line"
         id="tspan1373"
         style="stroke-width:0.264583;font-size:21.16666667px"
         x="613.80585"
         y="105.53104">target</tspan></text><path
       style="fill:none;stroke:#000000;stroke-width:1;stroke-linecap:butt;stroke-linejoin:miter;stroke-opacity:1;stroke-dasharray:none"
       d="m 701.23115,105.53103 c -87.42531,0 -87.42531,0 -87.42531,0"
       id="path1507" /><g
       id="g1732"
       transform="matrix(0.11146907,0,0,0.09172558,648.65889,105.47815)"
       style="fill:#2962ff;stroke:#2962ff"><path
         d="M 192.231,104.082 V 102 c 0,-12.407 -10.094,-22.5 -22.5,-22.5 -2.802,0 -5.484,0.519 -7.961,1.459 C 159.665,70.722 150.583,63 139.731,63 c -2.947,0 -5.76,0.575 -8.341,1.61 C 128.667,55.162 119.624,48 109.231,48 c -2.798,0 -5.496,0.541 -8,1.516 V 22.5 C 101.231,10.093 91.137,0 78.731,0 66.325,0 56.231,10.093 56.231,22.5 V 88.759 C 52.293,83.73 47.558,79.347 42.062,77.088 35.929,74.568 29.475,74.869 23.395,77.96 12.213,83.646 7.603,97.349 13.118,108.508 l 27.95,56.563 c 0.79,1.552 19.731,38.008 54.023,38.008 h 40 c 31.54,0 57.199,-25.794 57.199,-57.506 l -0.031,-41.491 z m -57.139,83.997 h -40 c -24.702,0 -40.091,-28.738 -40.646,-29.796 l -27.88,-56.42 c -1.924,-3.893 -0.33,-8.519 3.629,-10.532 2.182,-1.11 4.081,-1.223 6.158,-0.372 8.281,3.395 16.41,19.756 19.586,29.265 l 2.41,7.259 12.883,-4.559 V 22.5 c 0,-4.136 3.364,-7.5 7.5,-7.5 4.136,0 7.5,3.364 7.5,7.5 V 109 h 0.136 14.864 0.136 V 71 c 0,-4.187 3.748,-8 7.864,-8 4.262,0 8,3.505 8,7.5 v 15 26 h 15 v -26 c 0,-4.136 3.364,-7.5 7.5,-7.5 4.136,0 7.5,3.364 7.5,7.5 v 16.5 16.5 h 15 V 102 c 0,-4.136 3.364,-7.5 7.5,-7.5 4.136,0 7.5,3.364 7.5,7.5 v 10.727 h 0.035 l 0.025,32.852 c -0.001,23.435 -18.932,42.5 -42.2,42.5 z"
         id="path1679"
         style="fill:#2962ff;stroke:#2962ff" /><g
         id="g1681"
         style="fill:#2962ff;stroke:#2962ff">
</g><g
         id="g1683"
         style="fill:#2962ff;stroke:#2962ff">
</g><g
         id="g1685"
         style="fill:#2962ff;stroke:#2962ff">
</g><g
         id="g1687"
         style="fill:#2962ff;stroke:#2962ff">
</g><g
         id="g1689"
         style="fill:#2962ff;stroke:#2962ff">
</g><g
         id="g1691"
         style="fill:#2962ff;stroke:#2962ff">
</g><g
         id="g1693"
         style="fill:#2962ff;stroke:#2962ff">
</g><g
         id="g1695"
         style="fill:#2962ff;stroke:#2962ff">
</g><g
         id="g1697"
         style="fill:#2962ff;stroke:#2962ff">
</g><g
         id="g1699"
         style="fill:#2962ff;stroke:#2962ff">
</g><g
         id="g1701"
         style="fill:#2962ff;stroke:#2962ff">
</g><g
         id="g1703"
         style="fill:#2962ff;stroke:#2962ff">
</g><g
         id="g1705"
         style="fill:#2962ff;stroke:#2962ff">
</g><g
         id="g1707"
         style="fill:#2962ff;stroke:#2962ff">
</g><g
         id="g1709"
         style="fill:#2962ff;stroke:#2962ff">
</g></g><path
       style="fill:#2962ff;stroke:#2962ff;stroke-width:1.5;stroke-linecap:round;stroke-linejoin:miter;stroke-dasharray:none;stroke-opacity:1"
       d="m 550.67733,98.08116 99.44381,17.34995"
       id="path1740"
       sodipodi:nodetypes="cc" /><path
       style="fill:none;stroke:#ff3d00;stroke-width:2;stroke-linecap:round;stroke-linejoin:miter;stroke-dasharray:none;stroke-opacity:1"
       d="m 200,286.98629 c 1.54163,-1.39692 3.21838,-2.6579 4.62489,-4.19079 0.19148,-0.2087 -0.20428,-0.65349 0,-0.84968 0.2692,-0.25853 1.1885,0.18677 1.52397,0 0.3307,-0.18413 0.46768,-0.6272 0.80291,-0.80291 0.0471,-0.0246 3.86688,-0.0327 3.9288,0 0.32809,0.17349 0.45454,0.62296 0.78731,0.78732 0.59068,0.29173 1.64393,-0.30755 2.22554,0 1.62343,0.85847 -0.0836,0.78732 1.9722,0.78732 h 0.51448 0.63921 c 1.90937,0 3.25864,0.31163 4.89541,-0.99779 1.10187,-0.88151 1.8915,-2.11188 2.99337,-2.99337 0.58074,-0.4646 1.40061,-0.55157 1.99558,-0.99779 0.75258,-0.56444 1.33038,-1.33038 1.99558,-1.9956 0.99779,-0.99777 1.99558,-1.99556 2.99337,-2.99336 0.66519,-0.66519 1.47376,-1.21285 1.99558,-1.99557 0.96937,-1.45407 0.62292,-2.07827 1.99558,-2.99339 0.6188,-0.41251 1.4588,-0.48302 1.99558,-0.99777 0.22036,-0.21132 -0.17615,-0.66656 0,-0.91596 0.12443,-0.17613 0.45663,0.10136 0.647,0 0.30653,-0.16317 0.42672,-0.58002 0.73665,-0.73662 0.38381,-0.19397 0.86008,0 1.29011,0 h 0.53008 -1.82019 c 1.04716,0 2.1954,-0.44887 3.14148,0 0.65723,0.31181 0.57016,1.34792 0.97441,1.9527 0.78416,1.17314 2.11187,1.89148 2.99337,2.99336 0.74913,0.93642 1.14762,2.1454 1.99558,2.99337 0.23518,0.23519 0.7626,-0.23519 0.99778,0 0.52589,0.52588 0.48304,1.4588 0.9978,1.99559 0.21132,0.22035 0.68098,-0.19497 0.91594,0 0.19496,0.16177 -0.18314,0.58497 0,0.76002 0.19158,0.18314 0.53007,0 0.79511,0 0.43448,0 2.39136,0.12567 2.63089,0 0.41653,-0.2185 0.57709,-0.78743 0.99779,-0.99777 2.0123,-1.00616 3.24526,-0.68784 4.98895,-1.9956 1.88145,-1.41107 3.15249,-3.51978 4.98895,-4.98895 0.58073,-0.46459 1.41483,-0.53319 1.99559,-0.99777 1.83645,-1.46918 3.32595,-3.32598 4.98893,-4.98896 1.33041,-1.33039 2.66079,-2.66078 3.99116,-3.99116 0.65935,-0.65935 1.52797,-1.16228 1.9761,-1.97999 0.16758,-0.30579 0,-2.44236 0,-3.00507 0,-0.14291 -0.12351,0.35686 0,0.42874 0.21222,0.12352 0.59081,-0.19754 0.73665,0 0.3951,0.53515 -0.42664,1.48522 0,1.99558 0.14179,0.16961 4.11935,-0.18542 4.28739,0 0.22333,0.24645 -0.28988,0.8347 0,0.99779 0.51519,0.28987 1.20274,-0.15426 1.77339,0 0.15428,0.0417 -0.13684,0.3969 0,0.47941 0.22699,0.13685 0.5301,0 0.79513,0 0.29882,0.29882 0.53544,0.67679 0.89646,0.89645 0.1279,0.0778 2.60271,0 1.59412,0 -4.35034,0 1.08518,0.19673 1.35247,0 0.73768,-0.54291 1.2074,-1.39652 1.94101,-1.94491 0.35578,-2.45108 2.11825,-0.41438 2.99339,-0.99779 0.78271,-0.52182 1.33037,-1.33039 1.99556,-1.99558 0.3261,-0.3261 0.56499,-0.77369 0.9783,-0.9783 0.93522,-0.463 2.03959,-0.51345 2.97389,-0.9783 0.42111,-0.20953 0.57708,-0.78744 0.9978,-0.99779 0.94072,-0.47037 2.05263,-0.52743 2.99336,-0.99779 0.42071,-0.21036 0.57708,-0.78744 0.9978,-0.99779 2.79929,-1.39965 -1.66503,3.27845 2.99336,-0.99779 0.20481,-0.18802 -0.16783,-0.61242 0,-0.83409 0.0506,-0.0669 1.15718,0.0632 1.22775,0 0.13261,-0.11874 -0.14949,-0.43737 0,-0.53398 0.23132,-0.14949 0.6283,0.19147 0.82629,0 0.0271,-0.0262 0,-3.2073 0,-3.50395 0,-0.23906 0.1546,-0.53483 0,-0.71716 -0.13107,-0.1546 -0.45622,0.13428 -0.60804,0 -0.13428,-0.1188 0.13115,-0.41561 0,-0.53788 -0.14063,-0.13113 -0.72086,-0.1274 -0.57684,0 0.32488,0.2874 1.61864,0.53788 1.18488,0.53788 -4.7716,0 -0.51176,-0.19944 -1.68378,-1.26283 -0.19725,-0.17897 -0.57558,0.14496 -0.79899,0 -0.28993,-0.1881 0,-0.69118 0,-1.03677 v -0.57685 1.61362 -4.36923 c 0,-0.19878 -0.12518,-0.44191 0,-0.59634 0.10141,-0.12515 0.38105,0.1245 0.48329,0 0.12451,-0.15161 -0.16222,-0.4782 0,-0.58854 0.23849,-0.16221 0.57684,0 0.86526,0 0.66522,-0.33259 1.46971,-0.47191 1.9956,-0.99779 0.84796,-0.84795 1.24645,-2.05695 1.99556,-2.99337 1.46736,-1.83417 3.91536,-3.95003 5.97895,-4.98115 0.93462,-0.467 1.94924,-0.78587 2.97389,-0.99 0.65239,-0.12996 1.33038,0 1.99557,0 0.30922,0 0.65,0.13614 0.92766,0 0.37777,-0.18524 0.51384,-0.7092 0.89254,-0.89255 0.0794,-0.0384 3.35817,-0.0528 3.46887,0 1.4105,-0.21464 0.2708,0.96762 0.65479,1.22775 0.23342,0.15812 0.65498,-0.20753 0.8458,0 0.20754,0.2257 -0.21008,0.69651 0,0.91984 0.19761,0.21008 0.66132,-0.20395 0.86526,0 0.20395,0.20394 -0.12506,0.60538 0,0.86527 0.16415,0.34105 0.53528,0.53527 0.80291,0.80291 0.26374,0.26373 0.46548,0.60955 0.79124,0.79121 0.18266,0.10188 0.48143,-0.14971 0.62751,0 0.1497,0.15343 -0.16,0.50042 0,0.64311 0.34139,0.30448 1.8475,-0.35203 2.1242,0 0.18384,0.23391 -0.22174,0.6942 0,0.89255 0.24789,0.22175 0.66519,0 0.99778,0 h 5.72172 c 2.02401,0 6.07509,0.25032 7.57695,0 0.73358,-0.12226 1.27407,-0.81741 1.99559,-0.99779 0.64532,-0.16133 1.36451,0.21036 1.99557,0 0.44622,-0.14874 0.60642,-0.73688 0.99779,-0.99779 0.61881,-0.41253 1.37679,-0.58525 1.99557,-0.99779 0.39137,-0.26091 0.66522,-0.66519 0.9978,-0.99779 0.31051,-0.31051 0.70916,-0.55286 0.93154,-0.93153 0.20926,-0.35636 0,-1.63809 0,-2.05794 0,-3.12308 0.0805,-4.65396 -0.99779,-7.88877 -0.23519,-0.70555 -0.75639,-1.29214 -0.9978,-1.99558 -0.0987,-0.28756 0.16865,-0.65909 0,-0.91205 -0.90945,-1.36416 -0.60804,2.23144 -0.60804,-0.90425 v -2.83356 c 0,-0.17929 -0.14848,-0.43742 0,-0.53787 0.20614,-0.13944 3.1382,0 3.55854,0 h 7.86929 c 0.45471,0 1.08077,-0.35562 1.36417,0 0.20727,0.26011 -0.22284,0.75086 0,0.99779 0.21706,0.24055 1.17046,-0.15621 1.485,0 0.24352,0.12095 0.33128,0.46 0.57684,0.57684 0.14457,0.0688 4.13512,0.0262 4.18603,0 0.41833,-0.21504 0.66519,-0.66519 0.99779,-0.99779 0.66519,0 1.38528,0.26462 1.99557,0 0.26464,-0.11473 -0.20616,-0.66357 0,-0.86527 0.47805,-0.46767 1.29439,-0.45117 1.79681,-0.89255 0.33089,-0.29069 -0.35036,-1.05442 0,-1.32129 0.22117,-0.16847 0.63704,0.19613 0.8341,0 0.14338,-0.14272 0,-1.62255 0,-1.91373 v -0.52228 c 0,0.53527 -0.53528,1.60582 0,1.60582 1.2228,0 0.38351,-1.99479 0.6314,-2.49058 1.08188,-2.16378 0.44707,-0.32404 1.52787,-0.89256 0.29596,-0.15567 0.40735,-0.56584 0.70937,-0.70936 0.23588,-0.11209 0.52229,0 0.78343,0 0.634,-0.31701 1.31345,-0.55599 1.90204,-0.95102 0.3261,-0.3274 0.6522,-0.6548 0.97829,-0.9822 0.3274,0 0.70996,0.18186 0.98219,0 0.77462,-0.51743 1.20764,-1.44958 1.97609,-1.97609 0.24974,-0.1711 0.62199,0.0987 0.90816,0 0.69974,-0.24143 1.28191,-0.76289 1.98387,-0.99779 0.54052,-0.18088 3.53587,0 3.91322,0 0.44473,0 5.49907,-0.21034 5.8815,0 0.39253,0.21589 0.59745,0.6993 0.9978,0.90035 0.28712,0.14419 1.72434,-0.24928 1.94489,0 0.14206,0.16054 -0.17467,0.51886 0,0.6431 0.49128,0.34939 1.27204,-0.27499 1.80851,0 0.39894,0.20451 0.5502,0.7502 0.95102,0.95102 0.17161,0.086 2.02935,0.12376 2.2801,0 0.25209,-0.12441 0.39756,-0.39755 0.59634,-0.59633 0.3157,-0.31571 0.63141,-0.63142 0.94713,-0.94712 0.33258,-0.3326 0.78743,-0.57709 0.99777,-0.9978 0.47038,-0.94072 0.60719,-2.01683 0.9978,-2.99336 0.2762,-0.69052 0.66519,-1.33039 0.9978,-1.99558 0.33258,-0.6652 0.58525,-1.37678 0.99777,-1.99558 0.92247,-1.38369 2.07092,-2.60748 2.99339,-3.99116 0.41253,-0.61881 0.66519,-1.33039 0.99777,-1.99558 0.99779,-1.99558 1.99559,-3.99116 2.99339,-5.98674 0.33258,-0.6652 0.53318,-1.41484 0.99777,-1.99558 4.69236,-5.86542 1.74405,-0.49472 3.99116,-4.98895 0.66521,-1.33039 1.52521,-2.58007 1.99559,-3.99116 0.10517,-0.31553 -0.10517,-0.68226 0,-0.99779 0.28451,-0.85351 0.99814,-2.35697 1.91373,-2.91152 0.74499,-0.45122 2.96714,0.85744 3.10639,0.95102 0.3904,0.26236 0.55158,0.84904 0.9978,0.99779 0.63106,0.21035 1.36451,-0.21036 1.99557,0 0.44624,0.14874 0.66521,0.66519 0.99779,0.99779 0.9978,0.33259 1.96205,0.79152 2.99337,0.99779 5.04706,1.00941 -2.11344,-2.24229 5.98675,0.99779 0.43672,0.17468 0.54147,0.88371 0.9978,0.99778 0.96798,0.24201 2.02448,-0.23842 2.99336,0 0.44871,0.11042 0.5451,0.82842 0.98219,0.97831 0.28154,0.0965 2.90991,-0.17196 3.20384,0 0.36002,0.21061 0.50731,0.70736 0.88476,0.88476 0.30102,0.14147 0.66519,0 0.9978,0 h 0.9978 c 0.8342,0 3.57846,0.20914 4.19772,0 0.6522,-0.3326 1.30439,-0.6652 1.95659,-0.99779 0,-0.23646 -0.18693,-0.56459 0,-0.70937 0.24141,-0.18695 0.64479,0.14031 0.91596,0 0.55833,-0.28891 2.42007,-2.42006 2.95828,-2.95829 0.9978,-0.99779 1.9956,-1.99558 2.99337,-2.99337 0.3326,-0.3326 0.78745,-0.57708 0.99779,-0.99779 0.14875,-0.29748 -0.18449,-0.72105 0,-0.99779 1.02947,-1.54418 2.87724,-2.50591 3.99116,-3.99116 4.22246,1.58765 1.42912,-3.14148 1.9956,-3.99116 0.52181,-0.78273 1.32992,-1.33082 1.99556,-1.99558 0.32698,-0.32654 0.58082,-0.74933 0.98222,-0.9783 0.21214,-0.12103 0.57152,0.1835 0.73273,0 0.18352,-0.20888 -0.20272,-0.64382 0,-0.83409 0.21598,-0.20272 0.67781,0.20807 0.88866,0 0.20807,-0.20533 0,-0.58464 0,-0.87697 0.33261,0 0.7003,0.14875 0.9978,0 0.42071,-0.21035 0.66518,-0.66519 0.99779,-0.99779 l 0.9783,-0.9783 c 0.99258,-0.99259 1.98519,-1.98518 2.97778,-2.97778 0.66519,-0.66519 1.21666,-1.46806 1.99557,-1.99558 0.26249,-0.17776 0.66471,0.13608 0.95101,0 0.36674,-0.1743 0.49644,-0.68333 0.86138,-0.86137 0.54861,-0.26764 3.01707,0.27931 3.50787,0 0.38725,-0.22038 0.5428,-0.75173 0.94322,-0.94712 0.2989,-0.14585 0.66519,0 0.99779,0 5.67442,0 0.65691,-0.44623 4.98893,0.99779 0.31555,0.10518 0.67514,-0.0807 0.9978,0 1.02037,0.25509 1.97302,0.7427 2.99336,0.99779 0.64535,0.16133 1.39359,-0.283 1.9956,0 0.37994,0.17861 0.53205,0.67348 0.89254,0.88866 0.31348,0.1871 0.84794,-0.26856 1.09525,0 0.12231,0.13284 -0.14926,0.44008 0,0.54176 0.43804,0.29848 1.1055,-0.21454 1.59022,0 0.27218,0.12048 0.36671,0.49529 0.6314,0.63142 0.17677,0.0909 0.42138,-0.0943 0.59635,0 1.31143,0.70707 0.46524,1.67987 2.62699,1.67987 0.19227,0 0.42352,0.11603 0.57685,0 0.11602,-0.0878 -0.12634,-0.36434 0,-0.43653 0.22108,-0.12634 0.59959,0.19452 0.76393,0 0.29175,-0.34534 -0.24482,-4.92909 0,-5.12927 0.15991,-0.13075 0.48339,0.1552 0.61973,0 0.10483,-0.11935 0,-4.04876 0,-4.56411 v -2.55293 -0.56906 -0.4794 c 0,-1.36607 -0.15981,0.5795 0.83407,-0.47941 0.20273,-0.21598 -0.20899,-0.67874 0,-0.88866 0.2081,-0.20899 0.68911,0.22067 0.88477,0 0.22066,-0.24885 -0.10517,-0.68226 0,-0.99779 0.23519,-0.70554 0.58526,-1.37677 0.9978,-1.99558 0.2609,-0.39136 0.84904,-0.55156 0.99779,-0.99779 0.21035,-0.63106 -0.24394,-1.37672 0,-1.99558 0.43075,-1.09286 1.37578,-1.91118 1.9449,-2.9388 0.0925,-0.16707 -0.15361,-0.45947 0,-0.57295 0.20797,-0.15362 0.60561,0.19478 0.77563,0 0.19478,-0.22317 -0.16206,-0.64069 0,-0.88865 0.0457,-0.07 3.80973,0.16972 3.97946,0 0.13505,-0.13505 -0.15742,-0.46482 0,-0.57295 0.4562,-0.31338 1.26903,0.39135 1.6604,0 0.19476,-0.19476 -0.13169,-0.58438 0,-0.8263 0.2209,-0.40587 0.77255,-0.5665 0.98218,-0.9783 0.14383,-0.28251 -0.2128,-0.71606 0,-0.95102 0.19275,-0.21281 0.60804,0.13512 0.86138,0 1.77731,0.15715 0.3406,-1.30611 0.8341,-1.69936 0.26011,-0.20728 0.75038,0.22228 0.99777,0 0.2223,-0.19971 -0.2131,-0.68699 0,-0.89645 0.21683,-0.21311 0.70694,0.22439 0.91204,0 0.2244,-0.2455 -0.21211,-0.74163 0,-0.99779 0.17569,-0.21214 0.60894,0.16917 0.8263,0 0.16917,-0.13167 -0.17468,-0.51887 0,-0.64311 2.78006,-1.97719 -0.64254,2.23599 0.90427,-0.88476 1.02282,-2.06364 0.51702,-0.24583 1.7812,-0.90814 0.19626,-0.10283 1.61208,-1.69515 1.85525,-1.85527 0.61437,-0.40452 1.35801,-0.58717 1.96832,-0.99779 2.49341,-1.67756 0.10652,-0.21306 0.99777,-1.99558 0.53631,-1.07259 1.27609,-2.03401 1.99559,-2.99337 0.83233,-1.10976 2.02179,-2.015922 3.00197,-2.997547"
       id="path1746"
       sodipodi:nodetypes="csssccssscsssssssssssssccssssssssssssscssssssssssscssscsssssssssssssssssssssccsssscssssssscsssssssssssssssssssssssssssssssssccsssssscsssscccssssssssssssssssssssssssssssscsssssssssccsssssscsssssscssssssssssscssssssscsssssssccsssssssssssssssssscsssssssssssssc" /></g></svg>
